<svg xmlns="http://www.w3.org/2000/svg" xmlns:xlink="http://www.w3.org/1999/xlink" width="50" height="50" viewBox="0 0 50 50">
  <defs>
    <clipPath id="clip-path">
      <rect id="Ret칙ngulo_13" data-name="Ret칙ngulo 13" width="50" height="50" transform="translate(83 674)" fill="#fff" stroke="#707070" stroke-width="1"/>
    </clipPath>
  </defs>
  <g id="Grupo_de_m치scara_12" data-name="Grupo de m치scara 12" transform="translate(-83 -674)" clip-path="url(#clip-path)">
    <path id="file-pdf-regular" d="M36.116,9.559,27.924,1.367A4.687,4.687,0,0,0,24.614-.01H4.687A4.7,4.7,0,0,0,0,4.687V45.3A4.688,4.688,0,0,0,4.687,49.99h28.12A4.688,4.688,0,0,0,37.493,45.3V12.878a4.709,4.709,0,0,0-1.377-3.32ZM32.425,12.5H25V5.067ZM4.687,45.3V4.687H20.309V14.841a2.338,2.338,0,0,0,2.343,2.343H32.806V45.3Zm24.429-14.03c-1.191-1.172-4.589-.849-6.288-.635a8.467,8.467,0,0,1-3.593-4.521c.381-1.572.986-3.964.527-5.468a2.176,2.176,0,0,0-4.159-.576c-.43,1.572-.039,3.759.683,6.551A78.4,78.4,0,0,1,12.83,33.89C10.877,34.9,8.241,36.448,7.85,38.4c-.322,1.543,2.539,5.39,7.43-3.046a48.408,48.408,0,0,1,6.678-1.963,12.991,12.991,0,0,0,5.448,1.66A2.256,2.256,0,0,0,29.115,31.273Zm-19.342,7.6c.5-1.338,2.392-2.88,2.968-3.417C10.887,38.41,9.773,38.938,9.773,38.869Zm7.967-18.61c.723,0,.654,3.134.176,3.984C17.487,22.886,17.5,20.26,17.741,20.26ZM15.358,33.6a38.324,38.324,0,0,0,2.412-5.341,10.758,10.758,0,0,0,2.939,3.466A33.034,33.034,0,0,0,15.358,33.6Zm12.849-.488s-.488.586-3.642-.762C27.993,32.093,28.559,32.874,28.207,33.109Z" transform="translate(89.254 674.01)" fill="#f5443e"/>
  </g>
</svg>
