<svg xmlns="http://www.w3.org/2000/svg" xmlns:xlink="http://www.w3.org/1999/xlink" width="50" height="50" viewBox="0 0 50 50">
  <defs>
    <clipPath id="clip-path">
      <rect id="Ret칙ngulo_9" data-name="Ret칙ngulo 9" width="50" height="50" transform="translate(87 361)" fill="#fff" stroke="#707070" stroke-width="1"/>
    </clipPath>
  </defs>
  <g id="Grupo_de_m치scara_2" data-name="Grupo de m치scara 2" transform="translate(-87 -361)" clip-path="url(#clip-path)">
    <path id="film-solid" d="M47.656,6.25h-.781V8.2A1.175,1.175,0,0,1,45.7,9.375H41.8A1.175,1.175,0,0,1,40.625,8.2V6.25H9.375V8.2A1.175,1.175,0,0,1,8.2,9.375H4.3A1.175,1.175,0,0,1,3.125,8.2V6.25H2.344A2.338,2.338,0,0,0,0,8.594V41.406A2.338,2.338,0,0,0,2.344,43.75h.781V41.8A1.175,1.175,0,0,1,4.3,40.625H8.2A1.175,1.175,0,0,1,9.375,41.8V43.75h31.25V41.8A1.175,1.175,0,0,1,41.8,40.625H45.7A1.175,1.175,0,0,1,46.875,41.8V43.75h.781A2.338,2.338,0,0,0,50,41.406V8.594A2.338,2.338,0,0,0,47.656,6.25ZM9.375,36.328A1.175,1.175,0,0,1,8.2,37.5H4.3a1.175,1.175,0,0,1-1.172-1.172V32.422A1.175,1.175,0,0,1,4.3,31.25H8.2a1.175,1.175,0,0,1,1.172,1.172Zm0-9.375A1.175,1.175,0,0,1,8.2,28.125H4.3a1.175,1.175,0,0,1-1.172-1.172V23.047A1.175,1.175,0,0,1,4.3,21.875H8.2a1.175,1.175,0,0,1,1.172,1.172Zm0-9.375A1.175,1.175,0,0,1,8.2,18.75H4.3a1.175,1.175,0,0,1-1.172-1.172V13.672A1.175,1.175,0,0,1,4.3,12.5H8.2a1.175,1.175,0,0,1,1.172,1.172ZM35.938,37.891a1.175,1.175,0,0,1-1.172,1.172H15.234a1.175,1.175,0,0,1-1.172-1.172V28.516a1.175,1.175,0,0,1,1.172-1.172H34.766a1.175,1.175,0,0,1,1.172,1.172Zm0-16.406a1.175,1.175,0,0,1-1.172,1.172H15.234a1.175,1.175,0,0,1-1.172-1.172V12.109a1.175,1.175,0,0,1,1.172-1.172H34.766a1.175,1.175,0,0,1,1.172,1.172ZM46.875,36.328A1.175,1.175,0,0,1,45.7,37.5H41.8a1.175,1.175,0,0,1-1.172-1.172V32.422A1.175,1.175,0,0,1,41.8,31.25H45.7a1.175,1.175,0,0,1,1.172,1.172Zm0-9.375A1.175,1.175,0,0,1,45.7,28.125H41.8a1.175,1.175,0,0,1-1.172-1.172V23.047A1.175,1.175,0,0,1,41.8,21.875H45.7a1.175,1.175,0,0,1,1.172,1.172Zm0-9.375A1.175,1.175,0,0,1,45.7,18.75H41.8a1.175,1.175,0,0,1-1.172-1.172V13.672A1.175,1.175,0,0,1,41.8,12.5H45.7a1.175,1.175,0,0,1,1.172,1.172Z" transform="translate(87 361)" fill="#999"/>
  </g>
</svg>
