<svg xmlns="http://www.w3.org/2000/svg" xmlns:xlink="http://www.w3.org/1999/xlink" width="50" height="50" viewBox="0 0 50 50">
  <defs>
    <clipPath id="clip-path">
      <rect id="Ret칙ngulo_9" data-name="Ret칙ngulo 9" width="50" height="50" transform="translate(87 361)" fill="#fff" stroke="#707070" stroke-width="1"/>
    </clipPath>
  </defs>
  <g id="Grupo_de_m치scara_1" data-name="Grupo de m치scara 1" transform="translate(-87 -361)" clip-path="url(#clip-path)">
    <path id="file-word-regular" d="M36.116,9.559,27.924,1.367A4.687,4.687,0,0,0,24.614-.01H4.687A4.7,4.7,0,0,0,0,4.687V45.3A4.688,4.688,0,0,0,4.687,49.99h28.12A4.688,4.688,0,0,0,37.493,45.3V12.878a4.709,4.709,0,0,0-1.377-3.32ZM32.425,12.5H25V5.067ZM4.687,45.3V4.687H20.309V14.841a2.338,2.338,0,0,0,2.343,2.343H32.806V45.3ZM26.177,25a1.162,1.162,0,0,0-1.142.928c-2.011,9.539-1.992,9.315-2.05,10.105-.02-.117-.039-.254-.068-.42-.078-.5.029.02-2.3-9.715a1.171,1.171,0,0,0-1.142-.9h-1.3a1.19,1.19,0,0,0-1.142.888c-2.382,9.666-2.343,9.393-2.421,10.125-.01-.107-.02-.244-.049-.41-.068-.508-1.377-7.157-1.865-9.666a1.173,1.173,0,0,0-1.152-.947H9.9A1.174,1.174,0,0,0,8.758,26.43C9.539,29.613,11.365,37.122,12,39.709a1.162,1.162,0,0,0,1.142.888H15.6a1.159,1.159,0,0,0,1.133-.888l1.748-6.971a12.057,12.057,0,0,0,.293-1.689l.283,1.689c.01.039,1.23,4.931,1.748,6.971a1.17,1.17,0,0,0,1.133.888h2.412a1.159,1.159,0,0,0,1.133-.888c2.031-8,2.949-11.619,3.368-13.279a1.167,1.167,0,0,0-1.133-1.455H26.177Z" transform="translate(93.254 361.01)" fill="#2a77ff"/>
  </g>
</svg>
