<?xml version="1.0" encoding="UTF-8" standalone="no"?>
<svg
   xmlns:dc="http://purl.org/dc/elements/1.1/"
   xmlns:cc="http://creativecommons.org/ns#"
   xmlns:rdf="http://www.w3.org/1999/02/22-rdf-syntax-ns#"
   xmlns:svg="http://www.w3.org/2000/svg"
   xmlns="http://www.w3.org/2000/svg"
   xmlns:sodipodi="http://sodipodi.sourceforge.net/DTD/sodipodi-0.dtd"
   xmlns:inkscape="http://www.inkscape.org/namespaces/inkscape"
   aria-hidden="true"
   focusable="false"
   data-prefix="far"
   data-icon="file-archive"
   class="svg-inline--fa fa-file-archive fa-w-12"
   role="img"
   viewBox="0 0 384 512"
   version="1.1"
   id="svg4"
   sodipodi:docname="zip.svg"
   inkscape:version="0.92.4 (5da689c313, 2019-01-14)">
  <metadata
     id="metadata10">
    <rdf:RDF>
      <cc:Work
         rdf:about="">
        <dc:format>image/svg+xml</dc:format>
        <dc:type
           rdf:resource="http://purl.org/dc/dcmitype/StillImage" />
      </cc:Work>
    </rdf:RDF>
  </metadata>
  <defs
     id="defs8" />
  <sodipodi:namedview
     pagecolor="#ffffff"
     bordercolor="#666666"
     borderopacity="1"
     objecttolerance="10"
     gridtolerance="10"
     guidetolerance="10"
     inkscape:pageopacity="0"
     inkscape:pageshadow="2"
     inkscape:window-width="849"
     inkscape:window-height="480"
     id="namedview6"
     showgrid="false"
     inkscape:zoom="0.4609375"
     inkscape:cx="192"
     inkscape:cy="256"
     inkscape:window-x="0"
     inkscape:window-y="0"
     inkscape:window-maximized="0"
     inkscape:current-layer="svg4" />
  <path
     fill="currentColor"
     d="M128.3 160v32h32v-32zm64-96h-32v32h32zm-64 32v32h32V96zm64 32h-32v32h32zm177.6-30.1L286 14C277 5 264.8-.1 252.1-.1H48C21.5 0 0 21.5 0 48v416c0 26.5 21.5 48 48 48h288c26.5 0 48-21.5 48-48V131.9c0-12.7-5.1-25-14.1-34zM256 51.9l76.1 76.1H256zM336 464H48V48h79.7v16h32V48H208v104c0 13.3 10.7 24 24 24h104zM194.2 265.7c-1.1-5.6-6-9.7-11.8-9.7h-22.1v-32h-32v32l-19.7 97.1C102 385.6 126.8 416 160 416c33.1 0 57.9-30.2 51.5-62.6zm-33.9 124.4c-17.9 0-32.4-12.1-32.4-27s14.5-27 32.4-27 32.4 12.1 32.4 27-14.5 27-32.4 27zm32-198.1h-32v32h32z"
     id="path2"
     style="fill:#242f41;fill-opacity:1" />
</svg>
